<?xml version="1.0" encoding="UTF-8"?>
<!DOCTYPE svg PUBLIC "-//W3C//DTD SVG 1.0//EN" "http://www.w3.org/TR/2001/REC-SVG-20010904/DTD/svg10.dtd">
<!-- Creator: CorelDRAW 2019 (64-Bit) -->
<svg xmlns="http://www.w3.org/2000/svg" xml:space="preserve" version="1.0" shape-rendering="geometricPrecision" text-rendering="geometricPrecision" image-rendering="optimizeQuality" fill-rule="evenodd" clip-rule="evenodd"
viewBox="0 0 1282.32 164.45"
 xmlns:xlink="http://www.w3.org/1999/xlink"
 xmlns:xodm="http://www.corel.com/coreldraw/odm/2003">
 <g id="Слой_x0020_1">
  <metadata id="CorelCorpID_0Corel-Layer"/>
  <polygon fill="#017936" points="83.11,5.43 83.11,159.02 68.85,159.02 68.85,5.43 "/>
  <path fill="#007A3D" d="M20.65 91.85c-23.31,-0.03 -23.49,0 0,0zm9.46 0l132.02 0 0 -13.73 -127.93 0 -4.09 13.73z"/>
  <polygon fill="#00AEEF" points="34.23,78.08 56.05,10.52 66.64,10.52 66.34,78.14 "/>
  <polygon fill="#00AEEF" points="34.21,78.09 30.1,91.86 5.49,91.83 5.49,77.98 "/>
  <polygon fill="#00AEEF" points="66.4,91.93 66.4,154.23 9.26,154.21 29.94,91.99 "/>
  <path fill="#00AEEF" d="M90.2 91.85c5.08,37.15 61.83,37.55 66.91,0l4.17 0c-1.27,36.79 -33.86,61.82 -71.36,61.82l-0.43 -61.82 0.71 0z"/>
  <path fill="#00AEEF" d="M89.71 78.12l0 -68.33c46.03,3.83 71.27,27.16 72.15,68.53l0.27 0.16 0 -0.36 -5.18 0c-1.72,-16.76 -16.01,-29.84 -33.37,-29.84 -17.37,0 -31.65,13.08 -33.38,29.84l-0.49 0z"/>
  <path fill="#009846" d="M1.95 1.92l163.33 0 0 160.61 -163.33 0 0 -160.61zm3.54 3.51l156.25 0 0 153.59 -156.25 0 0 -153.59z"/>
  <path fill="#009846" d="M0 0l167.23 0 0 164.45 -167.23 0 0 -164.45zm3.62 3.59l159.98 0 0 157.26 -159.98 0 0 -157.26z"/>
  <path fill="#009846" fill-rule="nonzero" d="M1103.66 38.66l-9.48 0 -2.76 -8.6 -13.74 0 -2.73 8.6 -9.44 0 14.08 -38.66 10.33 0 13.74 38.66zm-14.23 -15.28l-4.15 -13c-0.31,-0.97 -0.53,-2.13 -0.66,-3.48l-0.21 0c-0.09,1.14 -0.31,2.26 -0.67,3.37l-4.21 13.11 9.9 0zm52.49 15.28l-8.71 0 0 -31.06 -16.01 0 0 31.06 -8.71 0 0 -38.66 33.43 0 0 38.66zm35.97 -31.57l-11.03 0 0 31.57 -8.73 0 0 -31.57 -10.97 0 0 -7.09 30.73 0 0 7.09zm28.39 31.57l-23.19 0 0 -38.66 22.3 0 0 7.09 -13.58 0 0 8.6 12.64 0 0 7.06 -12.64 0 0 8.84 14.47 0 0 7.07zm38.34 0l-11 0 -11.27 -16.79c-0.22,-0.32 -0.56,-1.04 -1.03,-2.14l-0.13 0 0 18.93 -8.71 0 0 -38.66 8.71 0 0 18.28 0.13 0c0.22,-0.51 0.58,-1.23 1.09,-2.16l10.67 -16.12 10.38 0 -13.48 18.44 14.64 20.22zm37.7 0l-9.49 0 -2.75 -8.6 -13.75 0 -2.72 8.6 -9.45 0 14.08 -38.66 10.33 0 13.75 38.66zm-14.24 -15.28l-4.15 -13c-0.3,-0.97 -0.52,-2.13 -0.65,-3.48l-0.21 0c-0.1,1.14 -0.32,2.26 -0.68,3.37l-4.2 13.11 9.89 0z"/>
  <g id="_1951787884848">
   <rect fill="#016CB2" x="179.67" y="58.71" width="105.74" height="105.74"/>
   <rect fill="#016CB2" x="291.14" y="58.71" width="105.74" height="105.74"/>
   <rect fill="#016CB2" x="402.75" y="58.71" width="105.74" height="105.74"/>
   <rect fill="#016CB2" x="514.13" y="58.71" width="105.74" height="105.74"/>
   <rect fill="#016CB2" x="624.68" y="58.71" width="105.74" height="105.74"/>
   <rect fill="#016CB2" x="735.43" y="58.71" width="105.74" height="105.74"/>
   <rect fill="#016CB2" x="845.87" y="58.71" width="105.74" height="105.74"/>
   <rect fill="#016CB2" x="956.34" y="58.71" width="105.74" height="105.74"/>
   <rect fill="#016CB2" x="1066.02" y="58.71" width="105.74" height="105.74"/>
   <rect fill="#016CB2" x="1176.58" y="58.71" width="105.74" height="105.74"/>
   <path fill="#FEFEFE" fill-rule="nonzero" d="M240.5 141.51l0 8.32 -15.95 0 0 -8.32 -1.73 0c-9.31,0 -16.69,-2.76 -22.17,-8.25 -5.46,-5.5 -8.2,-12.62 -8.2,-21.35 0,-8.53 2.69,-15.4 8.04,-20.6 5.38,-5.2 12.74,-7.8 22.12,-7.8l1.94 0 0 -8.32 15.95 0 0 8.32 1.87 0c9.45,0 16.85,2.6 22.22,7.77 5.36,5.18 8.04,12.06 8.04,20.63 0,8.73 -2.74,15.85 -8.23,21.35 -5.48,5.49 -12.9,8.25 -22.24,8.25l-1.66 0zm0 -45.76l0 33.32 0.71 0c4.52,0 8.09,-1.53 10.67,-4.6 2.6,-3.07 3.89,-7.12 3.89,-12.17 0,-5.04 -1.29,-9.06 -3.89,-12.04 -2.58,-3 -6.11,-4.51 -10.59,-4.51l-0.79 0zm-15.95 33.32l0 -33.32 -0.92 0c-4.4,0 -7.9,1.51 -10.48,4.53 -2.59,3.01 -3.89,7.01 -3.89,12.02 0,5.08 1.29,9.16 3.83,12.21 2.55,3.03 6.1,4.56 10.65,4.56l0.81 0z"/>
   <path fill="#FEFEFE" fill-rule="nonzero" d="M1270.94 149.83l-16.2 0 0 -43.58c0,-4.69 0.2,-9.89 0.6,-15.58l-0.4 0c-0.84,4.47 -1.61,7.68 -2.28,9.66l-17.06 49.5 -13.42 0 -17.36 -49c-0.47,-1.32 -1.23,-4.72 -2.29,-10.16l-0.45 0c0.43,7.18 0.66,13.47 0.66,18.89l0 40.27 -14.79 0 0 -72.82 24.03 0 14.88 43.16c1.18,3.45 2.05,6.92 2.59,10.42l0.31 0c0.9,-4.04 1.87,-7.54 2.89,-10.52l14.88 -43.06 23.41 0 0 72.82z"/>
   <path fill="#FEFEFE" fill-rule="nonzero" d="M1118.56 149.83c-10.43,0 -18.92,-3.4 -25.49,-10.17 -6.57,-6.8 -9.85,-15.64 -9.85,-26.54 0,-11.51 3.33,-20.82 10,-27.93 6.68,-7.1 15.5,-10.67 26.51,-10.67 10.4,0 18.8,3.41 25.22,10.21 6.41,6.81 9.62,15.79 9.62,26.92 0,11.43 -3.33,20.67 -9.99,27.68 -6.64,7 -15.32,10.5 -26.02,10.5zm0.72 -61.19c-5.76,0 -10.34,2.15 -13.72,6.49 -3.38,4.31 -5.07,10.02 -5.07,17.12 0,7.21 1.69,12.91 5.07,17.13 3.38,4.19 7.82,6.29 13.3,6.29 5.67,0 10.14,-2.05 13.47,-6.12 3.31,-4.09 4.97,-9.74 4.97,-16.99 0,-7.55 -1.61,-13.43 -4.82,-17.62 -3.22,-4.2 -7.62,-6.3 -13.2,-6.3z"/>
   <polygon fill="#FEFEFE" fill-rule="nonzero" points="1040.72,149.83 1024.28,149.83 1024.28,120.17 994.12,120.17 994.12,149.83 977.7,149.83 977.7,77.01 994.12,77.01 994.12,106.06 1024.28,106.06 1024.28,77.01 1040.72,77.01 "/>
   <path fill="#FEFEFE" fill-rule="nonzero" d="M898.41 149.83c-10.44,0 -18.93,-3.4 -25.5,-10.17 -6.57,-6.8 -9.84,-15.64 -9.84,-26.54 0,-11.51 3.32,-20.82 10,-27.93 6.67,-7.1 15.49,-10.67 26.5,-10.67 10.4,0 18.8,3.41 25.22,10.21 6.41,6.81 9.62,15.79 9.62,26.92 0,11.43 -3.33,20.67 -9.99,27.68 -6.63,7 -15.32,10.5 -26.01,10.5zm0.71 -61.19c-5.76,0 -10.33,2.15 -13.71,6.49 -3.38,4.31 -5.08,10.02 -5.08,17.12 0,7.21 1.7,12.91 5.08,17.13 3.38,4.19 7.81,6.29 13.29,6.29 5.67,0 10.14,-2.05 13.47,-6.12 3.31,-4.09 4.97,-9.74 4.97,-16.99 0,-7.55 -1.61,-13.43 -4.81,-17.62 -3.23,-4.2 -7.63,-6.3 -13.21,-6.3z"/>
   <path fill="#FEFEFE" fill-rule="nonzero" d="M818.58 149.83l-20.73 0 -21.22 -31.63c-0.41,-0.61 -1.06,-1.96 -1.94,-4.02l-0.24 0 0 35.65 -16.42 0 0 -72.82 16.42 0 0 34.43 0.24 0c0.42,-0.96 1.09,-2.31 2.05,-4.06l20.1 -30.37 19.55 0 -25.39 34.74 27.58 38.08z"/>
   <path fill="#FEFEFE" fill-rule="nonzero" d="M649.26 145.98l0 -14.28c5.3,3.12 11.3,4.68 17.97,4.68 12.22,0 19.12,-5.82 20.72,-17.47l-28.08 0 0 -13 28.18 0c-2.1,-11.98 -9,-17.98 -20.71,-17.98 -6.68,0 -12.71,1.42 -18.08,4.27l0 -14.77c5.65,-1.94 12.24,-2.91 19.74,-2.91 11.56,0 20.58,3.33 27.07,9.98 6.5,6.66 9.76,15.95 9.76,27.86 0,11.28 -3.24,20.33 -9.7,27.19 -6.47,6.85 -15.31,10.28 -26.5,10.28 -8.24,0 -15.03,-1.28 -20.37,-3.85z"/>
   <path fill="#FEFEFE" fill-rule="nonzero" d="M608.5 149.83l-16.21 0 0 -43.58c0,-4.69 0.21,-9.89 0.61,-15.58l-0.4 0c-0.85,4.47 -1.61,7.68 -2.29,9.66l-17.05 49.5 -13.42 0 -17.37 -49c-0.47,-1.32 -1.23,-4.72 -2.29,-10.16l-0.45 0c0.44,7.18 0.66,13.47 0.66,18.89l0 40.27 -14.78 0 0 -72.82 24.02 0 14.89 43.16c1.18,3.45 2.04,6.92 2.58,10.42l0.31 0c0.91,-4.04 1.88,-7.54 2.9,-10.52l14.87 -43.06 23.42 0 0 72.82z"/>
   <path fill="#FEFEFE" fill-rule="nonzero" d="M445.42 124.75l0 25.08 -16.41 0 0 -72.82 25.7 0c18.36,0 27.53,7.73 27.53,23.21 0,7.32 -2.64,13.23 -7.91,17.75 -5.27,4.51 -12.29,6.78 -21.09,6.78l-7.82 0zm0 -35.15l0 22.7 6.45 0c8.73,0 13.1,-3.83 13.1,-11.47 0,-7.49 -4.37,-11.23 -13.1,-11.23l-6.45 0z"/>
   <path fill="#FEFEFE" fill-rule="nonzero" d="M379.94 149.83l-17.87 0 -5.18 -16.21 -25.9 0 -5.13 16.21 -17.78 0 26.52 -72.82 19.45 0 25.89 72.82zm-26.81 -28.79l-7.82 -24.47c-0.57,-1.84 -0.99,-4.03 -1.23,-6.56l-0.4 0c-0.17,2.14 -0.59,4.25 -1.26,6.35l-7.93 24.68 18.64 0z"/>
  </g>
 </g>
</svg>
